# xmcd
#
# Track frame offsets: 
#        150
#        14579
#        32758
#        44673
#        56941
#        69730
#        82641
#        99092
#        117817
#        143901
#        163489
#        180518
#        193035
#        210618
#
# Disc length: 3005 seconds
#
# Revision: 0
# Processed by: cddbd v1.5.2PL0 Copyright (c) Steve Scherf et al.
# Submitted via: ExactAudioCopy v1.3
#
DISCID=c50bbb0e
DTITLE=The Black Sorrows - Endless Sleep
DYEAR=2015
DGENRE=Blues Rock
TTITLE0=Devil In Disguise
TTITLE1=Dirty Boulevard
TTITLE2=God Don't Like It
TTITLE3=That's  A Pretty Good Love
TTITLE4=Excitable Boy
TTITLE5=Endless Sleep
TTITLE6=I'm So Lonesome I Could Cry
TTITLE7=Hard Time Killing Floor
TTITLE8=Lonnie's Lament
TTITLE9=Better Days Ahead
TTITLE10=61 Highway
TTITLE11=Baby Let Me Kiss You
TTITLE12=Storybook Love
TTITLE13=Just Like the Fool That I Was
EXTD=
EXTT0=
EXTT1=
EXTT2=
EXTT3=
EXTT4=
EXTT5=
EXTT6=
EXTT7=
EXTT8=
EXTT9=
EXTT10=
EXTT11=
EXTT12=
EXTT13=
PLAYORDER=
